<?xml version="1.0" encoding="UTF-8" standalone="no"?>
<!-- Created with Inkscape (http://www.inkscape.org/) -->

<svg
   xmlns:dc="http://purl.org/dc/elements/1.1/"
   xmlns:cc="http://creativecommons.org/ns#"
   xmlns:rdf="http://www.w3.org/1999/02/22-rdf-syntax-ns#"
   xmlns:svg="http://www.w3.org/2000/svg"
   xmlns="http://www.w3.org/2000/svg"
   xmlns:xlink="http://www.w3.org/1999/xlink"
   xmlns:sodipodi="http://sodipodi.sourceforge.net/DTD/sodipodi-0.dtd"
   xmlns:inkscape="http://www.inkscape.org/namespaces/inkscape"
   width="64"
   height="64"
   id="svg2"
   version="1.1"
   inkscape:version="0.48.4 r9939"
   sodipodi:docname="archer.svg">
  <defs
     id="defs4">
    <linearGradient
       inkscape:collect="always"
       id="linearGradient4580">
      <stop
         style="stop-color:#000000;stop-opacity:1;"
         offset="0"
         id="stop4582" />
      <stop
         style="stop-color:#000000;stop-opacity:0;"
         offset="1"
         id="stop4584" />
    </linearGradient>
    <linearGradient
       id="linearGradient4406">
      <stop
         style="stop-color:#502d16;stop-opacity:1;"
         offset="0"
         id="stop4408" />
      <stop
         id="stop4414"
         offset="0.5"
         style="stop-color:#cb9340;stop-opacity:1;" />
      <stop
         style="stop-color:#b86733;stop-opacity:1;"
         offset="1"
         id="stop4410" />
    </linearGradient>
    <linearGradient
       id="linearGradient3979">
      <stop
         style="stop-color:#999999;stop-opacity:1;"
         offset="0"
         id="stop3981" />
      <stop
         id="stop3991"
         offset="0.0754"
         style="stop-color:#999999;stop-opacity:1;" />
      <stop
         id="stop3989"
         offset="0.36869431"
         style="stop-color:#ffffff;stop-opacity:1;" />
      <stop
         id="stop3987"
         offset="0.69097435"
         style="stop-color:#999999;stop-opacity:1;" />
      <stop
         style="stop-color:#999999;stop-opacity:1;"
         offset="1"
         id="stop3983" />
    </linearGradient>
    <linearGradient
       inkscape:collect="always"
       id="linearGradient3950">
      <stop
         style="stop-color:#000000;stop-opacity:1;"
         offset="0"
         id="stop3952" />
      <stop
         style="stop-color:#000000;stop-opacity:0;"
         offset="1"
         id="stop3954" />
    </linearGradient>
    <linearGradient
       id="linearGradient3934">
      <stop
         style="stop-color:#999999;stop-opacity:1;"
         offset="0"
         id="stop3936" />
      <stop
         id="stop3946"
         offset="0.36083016"
         style="stop-color:#999999;stop-opacity:1;" />
      <stop
         id="stop3944"
         offset="0.45493081"
         style="stop-color:#ffffff;stop-opacity:1;" />
      <stop
         id="stop3942"
         offset="0.71887863"
         style="stop-color:#999999;stop-opacity:1;" />
      <stop
         style="stop-color:#999999;stop-opacity:1;"
         offset="1"
         id="stop3938" />
    </linearGradient>
    <linearGradient
       id="linearGradient3914">
      <stop
         style="stop-color:#ffffff;stop-opacity:1;"
         offset="0"
         id="stop3916" />
      <stop
         style="stop-color:#4a4a4a;stop-opacity:1;"
         offset="1"
         id="stop3918" />
    </linearGradient>
    <linearGradient
       inkscape:collect="always"
       id="linearGradient3906">
      <stop
         style="stop-color:#000000;stop-opacity:1;"
         offset="0"
         id="stop3908" />
      <stop
         style="stop-color:#000000;stop-opacity:0;"
         offset="1"
         id="stop3910" />
    </linearGradient>
    <linearGradient
       id="linearGradient3873">
      <stop
         style="stop-color:#999999;stop-opacity:1;"
         offset="0"
         id="stop3875" />
      <stop
         id="stop3885"
         offset="0.07582533"
         style="stop-color:#999999;stop-opacity:1;" />
      <stop
         id="stop3883"
         offset="0.44253942"
         style="stop-color:#ffffff;stop-opacity:1;" />
      <stop
         id="stop3881"
         offset="0.88889152"
         style="stop-color:#999999;stop-opacity:1;" />
      <stop
         style="stop-color:#999999;stop-opacity:1;"
         offset="1"
         id="stop3877" />
    </linearGradient>
    <linearGradient
       id="linearGradient3863">
      <stop
         style="stop-color:#501616;stop-opacity:1;"
         offset="0"
         id="stop3865" />
      <stop
         style="stop-color:#a9642f;stop-opacity:1;"
         offset="1"
         id="stop3867" />
    </linearGradient>
    <linearGradient
       inkscape:collect="always"
       id="linearGradient3813">
      <stop
         style="stop-color:#000000;stop-opacity:1;"
         offset="0"
         id="stop3815" />
      <stop
         style="stop-color:#000000;stop-opacity:0;"
         offset="1"
         id="stop3817" />
    </linearGradient>
    <linearGradient
       inkscape:collect="always"
       id="linearGradient3801">
      <stop
         style="stop-color:#000000;stop-opacity:1;"
         offset="0"
         id="stop3803" />
      <stop
         style="stop-color:#000000;stop-opacity:0;"
         offset="1"
         id="stop3805" />
    </linearGradient>
    <linearGradient
       id="linearGradient3781">
      <stop
         style="stop-color:#999999;stop-opacity:1;"
         offset="0"
         id="stop3783" />
      <stop
         id="stop3797"
         offset="0.0817585"
         style="stop-color:#7e7e7e;stop-opacity:1;" />
      <stop
         id="stop3795"
         offset="0.32644594"
         style="stop-color:#9f9f9f;stop-opacity:1;" />
      <stop
         id="stop3793"
         offset="0.32644594"
         style="stop-color:#a5a5a5;stop-opacity:1;" />
      <stop
         id="stop3791"
         offset="0.41672909"
         style="stop-color:#b2b2b2;stop-opacity:1;" />
      <stop
         id="stop3789"
         offset="0.82487947"
         style="stop-color:#f6f6f6;stop-opacity:1;" />
      <stop
         style="stop-color:#939393;stop-opacity:1;"
         offset="1"
         id="stop3785" />
    </linearGradient>
    <linearGradient
       inkscape:collect="always"
       xlink:href="#linearGradient3863"
       id="linearGradient3869"
       x1="-30.935923"
       y1="1039.5017"
       x2="-27.968929"
       y2="1039.5017"
       gradientUnits="userSpaceOnUse"
       gradientTransform="matrix(-1,0,0,1,-58.75,0)" />
    <linearGradient
       inkscape:collect="always"
       xlink:href="#linearGradient3873"
       id="linearGradient3879"
       x1="-28.672552"
       y1="57.794567"
       x2="-30.788464"
       y2="60.945435"
       gradientUnits="userSpaceOnUse" />
    <linearGradient
       inkscape:collect="always"
       xlink:href="#linearGradient3906"
       id="linearGradient3912"
       x1="-27.53125"
       y1="1050.0341"
       x2="-30.04394"
       y2="1047.5214"
       gradientUnits="userSpaceOnUse" />
    <radialGradient
       inkscape:collect="always"
       xlink:href="#linearGradient3914"
       id="radialGradient3920"
       cx="-30.593412"
       cy="58.532619"
       fx="-30.593412"
       fy="58.532619"
       r="1.9375"
       gradientUnits="userSpaceOnUse"
       gradientTransform="matrix(1.0791562,1.0791562,-0.70710648,0.70710708,43.810453,50.158861)" />
    <linearGradient
       inkscape:collect="always"
       xlink:href="#linearGradient3934"
       id="linearGradient3940"
       x1="-36.018253"
       y1="1036.0104"
       x2="-30.18462"
       y2="1021.5146"
       gradientUnits="userSpaceOnUse" />
    <linearGradient
       inkscape:collect="always"
       xlink:href="#linearGradient3950"
       id="linearGradient3956"
       x1="-15.903643"
       y1="1030.1768"
       x2="-28.02869"
       y2="1030.1768"
       gradientUnits="userSpaceOnUse" />
    <linearGradient
       inkscape:collect="always"
       xlink:href="#linearGradient3979"
       id="linearGradient3985"
       x1="-38.802486"
       y1="4.5146418"
       x2="-13.700194"
       y2="10.083108"
       gradientUnits="userSpaceOnUse" />
    <linearGradient
       inkscape:collect="always"
       xlink:href="#linearGradient3979"
       id="linearGradient4009"
       gradientUnits="userSpaceOnUse"
       x1="-38.802486"
       y1="4.5146418"
       x2="-13.700194"
       y2="10.083108"
       gradientTransform="matrix(0.81321708,0,0,1,-5.4867484,988.36218)" />
    <linearGradient
       inkscape:collect="always"
       xlink:href="#linearGradient3934"
       id="linearGradient4039"
       gradientUnits="userSpaceOnUse"
       x1="-36.018253"
       y1="1036.0104"
       x2="-30.18462"
       y2="1021.5146" />
    <linearGradient
       inkscape:collect="always"
       xlink:href="#linearGradient3950"
       id="linearGradient4041"
       gradientUnits="userSpaceOnUse"
       x1="-15.903643"
       y1="1030.1768"
       x2="-28.02869"
       y2="1030.1768" />
    <linearGradient
       inkscape:collect="always"
       xlink:href="#linearGradient3979"
       id="linearGradient4043"
       gradientUnits="userSpaceOnUse"
       gradientTransform="matrix(0.81321708,0,0,1,-5.4867484,988.36218)"
       x1="-38.802486"
       y1="4.5146418"
       x2="-13.700194"
       y2="10.083108" />
    <linearGradient
       inkscape:collect="always"
       xlink:href="#linearGradient3873"
       id="linearGradient4045"
       gradientUnits="userSpaceOnUse"
       x1="-28.672552"
       y1="57.794567"
       x2="-30.788464"
       y2="60.945435" />
    <radialGradient
       inkscape:collect="always"
       xlink:href="#linearGradient3914"
       id="radialGradient4047"
       gradientUnits="userSpaceOnUse"
       gradientTransform="matrix(1.0791562,1.0791562,-0.70710648,0.70710708,43.810453,50.158861)"
       cx="-30.593412"
       cy="58.532619"
       fx="-30.593412"
       fy="58.532619"
       r="1.9375" />
    <linearGradient
       inkscape:collect="always"
       xlink:href="#linearGradient3906"
       id="linearGradient4049"
       gradientUnits="userSpaceOnUse"
       x1="-27.53125"
       y1="1050.0341"
       x2="-30.04394"
       y2="1047.5214" />
    <linearGradient
       inkscape:collect="always"
       xlink:href="#linearGradient3863"
       id="linearGradient4051"
       gradientUnits="userSpaceOnUse"
       gradientTransform="matrix(-1,0,0,1,-58.75,0)"
       x1="-30.935923"
       y1="1039.5017"
       x2="-27.968929"
       y2="1039.5017" />
    <linearGradient
       inkscape:collect="always"
       xlink:href="#linearGradient3813"
       id="linearGradient4294"
       gradientUnits="userSpaceOnUse"
       gradientTransform="translate(0,-0.26516504)"
       x1="32.261745"
       y1="999.1524"
       x2="32.261745"
       y2="1010.494" />
    <linearGradient
       inkscape:collect="always"
       xlink:href="#linearGradient3781"
       id="linearGradient4296"
       gradientUnits="userSpaceOnUse"
       x1="44.017399"
       y1="1005.7815"
       x2="24.837124"
       y2="1025.0502" />
    <linearGradient
       inkscape:collect="always"
       xlink:href="#linearGradient3801"
       id="linearGradient4298"
       gradientUnits="userSpaceOnUse"
       x1="46.75"
       y1="1047.7372"
       x2="35.5"
       y2="1030.9984" />
    <linearGradient
       inkscape:collect="always"
       xlink:href="#linearGradient3863"
       id="linearGradient4300"
       gradientUnits="userSpaceOnUse"
       gradientTransform="matrix(-1,0,0,1,-58.75,0)"
       x1="-30.935923"
       y1="1039.5017"
       x2="-27.968929"
       y2="1039.5017" />
    <linearGradient
       inkscape:collect="always"
       xlink:href="#linearGradient3873"
       id="linearGradient4302"
       gradientUnits="userSpaceOnUse"
       x1="-28.672552"
       y1="57.794567"
       x2="-30.788464"
       y2="60.945435" />
    <radialGradient
       inkscape:collect="always"
       xlink:href="#linearGradient3914"
       id="radialGradient4304"
       gradientUnits="userSpaceOnUse"
       gradientTransform="matrix(1.0791562,1.0791562,-0.70710648,0.70710708,43.810453,50.158861)"
       cx="-30.593412"
       cy="58.532619"
       fx="-30.593412"
       fy="58.532619"
       r="1.9375" />
    <linearGradient
       inkscape:collect="always"
       xlink:href="#linearGradient3906"
       id="linearGradient4306"
       gradientUnits="userSpaceOnUse"
       x1="-27.53125"
       y1="1050.0341"
       x2="-30.04394"
       y2="1047.5214" />
    <linearGradient
       inkscape:collect="always"
       xlink:href="#linearGradient3979"
       id="linearGradient4308"
       gradientUnits="userSpaceOnUse"
       gradientTransform="matrix(0.81321708,0,0,1,-5.4867484,988.36218)"
       x1="-38.802486"
       y1="4.5146418"
       x2="-13.700194"
       y2="10.083108" />
    <linearGradient
       inkscape:collect="always"
       xlink:href="#linearGradient3934"
       id="linearGradient4310"
       gradientUnits="userSpaceOnUse"
       x1="-36.018253"
       y1="1036.0104"
       x2="-30.18462"
       y2="1021.5146" />
    <linearGradient
       inkscape:collect="always"
       xlink:href="#linearGradient3950"
       id="linearGradient4312"
       gradientUnits="userSpaceOnUse"
       x1="-15.903643"
       y1="1030.1768"
       x2="-28.02869"
       y2="1030.1768" />
    <linearGradient
       inkscape:collect="always"
       xlink:href="#linearGradient3873"
       id="linearGradient4524"
       gradientUnits="userSpaceOnUse"
       gradientTransform="matrix(2.125,0,0,0.075,-63.492188,938.36506)"
       x1="57.195084"
       y1="1021.5975"
       x2="55.503136"
       y2="1013.0532" />
    <linearGradient
       inkscape:collect="always"
       xlink:href="#linearGradient3873"
       id="linearGradient4526"
       gradientUnits="userSpaceOnUse"
       gradientTransform="matrix(2.125,0,0,0.075,-63.492188,948.6623)"
       x1="57.195084"
       y1="1021.5975"
       x2="55.503136"
       y2="1013.0532" />
    <linearGradient
       inkscape:collect="always"
       xlink:href="#linearGradient4406"
       id="linearGradient4535"
       gradientUnits="userSpaceOnUse"
       gradientTransform="matrix(0.98792528,0,0,1.0506489,-2.3120889,-45.704716)"
       x1="38.685524"
       y1="1014.9297"
       x2="38.685524"
       y2="1013.939" />
    <linearGradient
       inkscape:collect="always"
       xlink:href="#linearGradient3863"
       id="linearGradient4544"
       gradientUnits="userSpaceOnUse"
       gradientTransform="matrix(1.5197585,0,0,1.0506489,-34.632938,-51.430448)"
       x1="55.5625"
       y1="1020.1244"
       x2="57.3125"
       y2="1020.1244" />
    <linearGradient
       inkscape:collect="always"
       xlink:href="#linearGradient3979"
       id="linearGradient4547"
       gradientUnits="userSpaceOnUse"
       gradientTransform="matrix(1.1805145,0,0,1.1804603,-13.925377,-184.13492)"
       x1="59.271351"
       y1="1021.1747"
       x2="59.585739"
       y2="1018.4559" />
    <linearGradient
       inkscape:collect="always"
       xlink:href="#linearGradient4406"
       id="linearGradient4560"
       gradientUnits="userSpaceOnUse"
       gradientTransform="matrix(0.38669954,0,0,1,-39.157504,-20.829015)"
       x1="38.685524"
       y1="1014.9297"
       x2="38.685524"
       y2="1013.939" />
    <linearGradient
       inkscape:collect="always"
       xlink:href="#linearGradient4406"
       id="linearGradient4568"
       gradientUnits="userSpaceOnUse"
       gradientTransform="matrix(0.38669954,0,0,1,-39.157504,-20.829015)"
       x1="38.685524"
       y1="1014.9297"
       x2="38.685524"
       y2="1013.939" />
    <linearGradient
       inkscape:collect="always"
       xlink:href="#linearGradient4406"
       id="linearGradient4576"
       gradientUnits="userSpaceOnUse"
       gradientTransform="matrix(0.38669954,0,0,1,-39.157504,-20.829015)"
       x1="38.685524"
       y1="1014.9297"
       x2="38.685524"
       y2="1013.939" />
    <linearGradient
       inkscape:collect="always"
       xlink:href="#linearGradient4580"
       id="linearGradient4586"
       x1="15.733126"
       y1="1042.6394"
       x2="34.471455"
       y2="1019.6585"
       gradientUnits="userSpaceOnUse"
       gradientTransform="matrix(1.0506972,0,0,1.0506489,-0.1162418,-1040.0425)" />
    <linearGradient
       inkscape:collect="always"
       xlink:href="#linearGradient4406"
       id="linearGradient4590"
       gradientUnits="userSpaceOnUse"
       gradientTransform="matrix(0.32106258,0.24899029,-0.64391525,0.83022558,658.63537,-827.68044)"
       x1="38.685524"
       y1="1014.9297"
       x2="38.685524"
       y2="1013.939" />
    <linearGradient
       inkscape:collect="always"
       xlink:href="#linearGradient4406"
       id="linearGradient4594"
       gradientUnits="userSpaceOnUse"
       gradientTransform="matrix(0.2873004,0.2872872,-0.74295513,0.74292102,762.69054,-743.78387)"
       x1="38.685524"
       y1="1014.9297"
       x2="38.685524"
       y2="1013.939" />
    <linearGradient
       inkscape:collect="always"
       xlink:href="#linearGradient4406"
       id="linearGradient4598"
       gradientUnits="userSpaceOnUse"
       gradientTransform="matrix(0.2873004,0.2872872,-0.74295513,0.74292102,765.47662,-746.56982)"
       x1="38.685524"
       y1="1014.9297"
       x2="38.685524"
       y2="1013.939" />
  </defs>
  <sodipodi:namedview
     id="base"
     pagecolor="#ffffff"
     bordercolor="#666666"
     borderopacity="1.0"
     inkscape:pageopacity="0.0"
     inkscape:pageshadow="2"
     inkscape:zoom="5.6568542"
     inkscape:cx="44.05065"
     inkscape:cy="26.810314"
     inkscape:document-units="px"
     inkscape:current-layer="layer1"
     showgrid="false"
     fit-margin-top="0"
     fit-margin-left="0"
     fit-margin-right="0"
     fit-margin-bottom="0"
     inkscape:window-width="1920"
     inkscape:window-height="1058"
     inkscape:window-x="-8"
     inkscape:window-y="623"
     inkscape:window-maximized="1" />
  <metadata
     id="metadata7">
    <rdf:RDF>
      <cc:Work
         rdf:about="">
        <dc:format>image/svg+xml</dc:format>
        <dc:type
           rdf:resource="http://purl.org/dc/dcmitype/StillImage" />
        <dc:title></dc:title>
      </cc:Work>
    </rdf:RDF>
  </metadata>
  <g
     inkscape:label="Layer 1"
     inkscape:groupmode="layer"
     id="layer1"
     transform="translate(0,-988.36218)">
    <path
       style="fill:#ff0000;fill-opacity:1;stroke:none"
       d="m 15.78125,996.92468 0.1875,2.5625 5.34375,5.37502 -0.15625,-2.5938 -5.375,-5.34372 z M 13,999.70593 l 0,0.0625 -0.125,0 0.125,0.125 0.15625,2.37497 5.375,5.375 -0.15625,-2.5 2.46875,0.1563 -5.375,-5.37502 L 13.0625,999.76843 13,999.70593 z m -2.90625,2.84377 5.40625,5.375 2.53125,0.1562 -5.34375,-5.375 -2.59375,-0.1562 z m -0.53125,1.3125 0.5,2.5312 6,4.6563 -0.5,-2.5625 -6,-4.625 z m 0.0625,3.0312 -2.5625,0.1563 6,4.6562 2.5625,-0.1562 -6,-4.6563 z m 15.5,0 -7.625,7.625 24.34375,20.4375 c 0.548015,-0.3679 1.109224,-0.7567 1.625,-1.1562 0.469391,-0.3636 0.856273,-0.7734 1.28125,-1.1563 0.523956,-0.498 1.065354,-0.9968 1.53125,-1.5312 0.484807,-0.5563 0.929813,-1.1266 1.34375,-1.7188 l -22.5,-22.5 z m -17.75,11.4375 1.9375,1.6875 7.59375,0 -1.9375,-1.6875 -7.59375,0 z m 1.90625,2.375 -1.9375,1.6875 7.625,0 1.90625,-1.6875 -7.59375,0 z m 40.09375,10.4375 c -0.330328,0.3799 -0.669465,0.7647 -1.03125,1.125 -0.03039,0.019 -0.03276,0.043 -0.0625,0.062 -1.0836,1.0712 -2.367703,2.0168 -3.6875,2.9063 -0.0879,0.073 -0.21553,0.174 -0.3125,0.25 -0.271643,0.2099 -0.614311,0.4484 -1,0.6875 l 6.71875,5.625 5.03125,-5 -5.65625,-5.6563 z"
       id="path4552"
       inkscape:connector-curvature="0" />
    <g
       id="g4617">
      <path
         id="rect4550"
         transform="translate(0,988.36218)"
         d="M 14.71875 9.90625 L 14.25 10.34375 L 23.78125 19.875 L 24.25 19.4375 L 14.71875 9.90625 z "
         style="opacity:0.97345132000000001;fill:url(#linearGradient4598);fill-opacity:1;stroke:none" />
      <path
         id="rect4564"
         transform="translate(0,988.36218)"
         d="M 11.9375 12.6875 L 11.46875 13.15625 L 21 22.6875 L 21.4375 22.1875 L 11.9375 12.6875 z "
         style="opacity:0.97345132000000001;fill:url(#linearGradient4594);fill-opacity:1;stroke:none" />
      <path
         id="rect4572"
         transform="translate(0,988.36218)"
         d="M 8.6875 16.96875 L 8.28125 17.46875 L 18.34375 25.3125 L 18.8125 24.84375 L 8.6875 16.96875 z "
         style="opacity:0.97345132000000001;fill:url(#linearGradient4590);fill-opacity:1;stroke:none" />
      <path
         inkscape:connector-curvature="0"
         id="path4314"
         d="m 27.530577,989.08896 c -2.902733,1.2128 5.665037,10.64848 5.28632,12.83764 1.628419,-0.2476 6.748328,1.9771 10.638309,4.9906 0.469391,0.3635 0.85556,0.766 1.280537,1.1492 0.523956,0.4977 1.077316,1.0086 1.543212,1.543 1.456136,1.6708 2.578993,3.517 3.381932,5.4832 l 3.152091,0 c -0.985654,-2.43 -2.500726,-4.6754 -4.465463,-6.6323 -0.03039,-0.02 -0.03592,-0.047 -0.06567,-0.065 -1.0836,-1.0711 -2.357644,-2.0328 -3.677441,-2.9222 -0.0879,-0.072 -0.231378,-0.1548 -0.328343,-0.2297 -1.007303,-0.7784 -2.565829,-1.6717 -6.402686,-3.3162 -5.52866,-2.09731 -10.342449,-11.20294 -8.175737,-12.11529 l -2.167063,-0.72232 z m 22.163144,36.51014 c -0.803542,1.9807 -1.948975,3.8341 -3.414766,5.5159 -0.465896,0.5344 -1.019256,1.0451 -1.543212,1.5431 -0.424977,0.3829 -0.811146,0.7856 -1.280537,1.1492 -3.889981,3.0135 -9.00989,5.2381 -10.638309,4.9905 0.378716,2.1892 -8.189053,11.6248 -5.28632,12.8376 l 2.167063,-0.7223 c -2.166712,-0.9125 2.647077,-10.0179 8.175737,-12.1153 3.836857,-1.6444 5.395383,-2.5376 6.402686,-3.3161 0.09697,-0.076 0.240441,-0.157 0.328343,-0.2298 1.319797,-0.8895 2.593841,-1.851 3.677441,-2.9222 0.02974,-0.02 0.03528,-0.046 0.06567,-0.065 1.970385,-1.9624 3.48007,-4.2271 4.465463,-6.665 l -3.119257,0 z"
         style="fill:#803300;fill-opacity:1;stroke:none" />
      <g
         transform="matrix(1.0506972,0,0,1.0506489,-8.1602939,-51.323923)"
         id="g4352">
        <rect
           ry="0.3807171"
           y="1014.4994"
           x="54.578125"
           height="0.75"
           width="3.71875"
           id="rect4339"
           style="fill:url(#linearGradient4524);fill-opacity:1;stroke:none"
           rx="0.3806996" />
        <rect
           rx="0.3806996"
           style="fill:url(#linearGradient4526);fill-opacity:1;stroke:none"
           id="rect4348"
           width="3.71875"
           height="0.75"
           x="54.578125"
           y="1024.7966"
           ry="0.3807171" />
      </g>
      <path
         id="path4396"
         d="m 35.016794,1000.2029 0.91936,1.5759 c 8.949319,3.6364 11.922909,6.4789 15.267944,10.2439 -0.806416,-1.2649 -1.751419,-2.4453 -2.856583,-3.546 -0.03039,-0.02 -0.03592,-0.048 -0.06567,-0.065 -1.0836,-1.0711 -2.357644,-2.0328 -3.677441,-2.9222 -0.0879,-0.072 -0.231378,-0.1548 -0.328343,-0.2298 -1.007303,-0.7783 -2.565829,-1.6716 -6.402686,-3.3161 -0.989162,-0.3752 -1.949074,-1.0033 -2.856583,-1.7401 z"
         style="fill:#d49800;fill-opacity:1;stroke:none"
         inkscape:connector-curvature="0" />
      <path
         id="path4401"
         d="m 48.905698,1027.2899 c -0.709534,1.3493 -1.587392,2.649 -2.626743,3.8415 -0.465896,0.5344 -1.019256,1.0124 -1.543212,1.5103 -0.424977,0.3829 -0.811146,0.8184 -1.280537,1.1819 -3.735266,2.8937 -8.585303,5.042 -10.408469,4.9906 l 1.313372,0.4268 c 8.437677,-1.7246 13.421245,-8.5877 14.545589,-11.9511 z"
         style="fill:#d49800;fill-opacity:1;stroke:none"
         inkscape:connector-curvature="0" />
      <path
         inkscape:connector-curvature="0"
         id="path4418"
         d="m 28.171437,990.64889 -20.7098736,29.80971 20.8956126,29.624"
         style="fill:none;stroke:#7d4622;stroke-width:0.29999998;stroke-linecap:butt;stroke-linejoin:miter;stroke-miterlimit:4;stroke-opacity:1;stroke-dasharray:none" />
      <path
         inkscape:connector-curvature="0"
         id="path4444"
         d="m 7.370324,1018.7206 1.9372229,1.9551 -1.7402172,0 0,0.752 1.7073829,0 -1.9372229,1.9551 7.6175553,0 1.904389,-1.9551 36.61023,0 1.510377,1.7295 4.728137,-2.1055 -4.728137,-2.1056 -1.510377,1.7296 -36.577396,0 -1.937223,-1.9551 -7.584721,0 z"
         style="opacity:0.19911505;fill:#000000;fill-opacity:1;stroke:none" />
      <path
         sodipodi:nodetypes="ccccc"
         inkscape:connector-curvature="0"
         id="rect4420"
         d="m 54.97764,1018.5155 4.722121,1.8467 -4.722121,1.8467 -1.846721,-1.8467 z"
         style="fill:url(#linearGradient4547);fill-opacity:1;stroke:none" />
      <path
         sodipodi:nodetypes="cccccc"
         inkscape:connector-curvature="0"
         id="rect4332"
         d="m 49.808641,1015.109 2.659577,0 0,10.5064 -2.659577,0 0,-6.7107 z"
         style="fill:url(#linearGradient4544);fill-opacity:1;stroke:none" />
      <path
         inkscape:connector-curvature="0"
         id="rect4360"
         d="m 51.630944,1015.109 -1.805886,1.8057 0,0.4597 2.265566,-2.2654 -0.45968,0 z m 0.820857,1.2804 -2.626743,2.6266 0,0.4597 2.626743,-2.6267 0,-0.4596 z m 0,2.1013 -2.626743,2.6266 0,0.4597 2.626743,-2.6267 0,-0.4596 z m 0,2.1013 -2.626743,2.6266 0,0.4597 2.626743,-2.6267 0,-0.4596 z m 0,2.1013 -2.626743,2.6266 0,0.2955 0.164171,0 2.462572,-2.4625 0,-0.4596 z m 0,2.1013 -0.820857,0.8208 0.45968,0 0.361177,-0.3612 0,-0.4596 z"
         style="opacity:0.97345132;fill:#ffcc00;fill-opacity:1;stroke:none" />
      <path
         inkscape:connector-curvature="0"
         id="rect4362"
         d="m 52.090624,1015.109 -2.265566,2.2654 0,0.4596 2.626743,-2.6266 0,-0.099 -0.361177,0 z m 0.361177,1.74 -2.626743,2.6267 0,0.4596 2.626743,-2.6266 0,-0.4597 z m 0,2.1013 -2.626743,2.6267 0,0.4596 2.626743,-2.6266 0,-0.4597 z m 0,2.1013 -2.626743,2.6267 0,0.4596 2.626743,-2.6266 0,-0.4597 z m 0,2.1013 -2.462572,2.4625 0.45968,0 2.002892,-2.0028 0,-0.4597 z m 0,2.1013 -0.361177,0.3612 0.361177,0 0,-0.3612 z"
         style="opacity:0.92477878;fill:#502d16;fill-opacity:1;stroke:none" />
      <rect
         y="1020.0339"
         x="7.5671644"
         height="0.65665561"
         width="46.771488"
         id="rect4394"
         style="opacity:0.97345132;fill:url(#linearGradient4535);fill-opacity:1;stroke:none" />
      <path
         style="fill:#999999;fill-opacity:1;stroke:none"
         d="m 54.659644,1019.9498 4.202844,0.4124 -4.202844,0.4124 -0.872038,-0.4124 z"
         id="path4423"
         inkscape:connector-curvature="0"
         sodipodi:nodetypes="ccccc" />
      <path
         id="path4578"
         transform="translate(0,988.36218)"
         d="M 25.125 18.53125 L 17.5 26.15625 L 41.84375 46.59375 C 42.391765 46.22585 42.952974 45.837062 43.46875 45.4375 C 43.938141 45.0739 44.325023 44.66415 44.75 44.28125 C 45.273956 43.78325 45.815354 43.2844 46.28125 42.75 C 46.766057 42.193749 47.211063 41.623442 47.625 41.03125 L 25.125 18.53125 z M 49.375 42.78125 C 49.044672 43.161153 48.705535 43.545931 48.34375 43.90625 C 48.31336 43.92525 48.31099 43.94875 48.28125 43.96875 C 47.19765 45.03995 45.913547 45.9855 44.59375 46.875 C 44.505848 46.9478 44.37822 47.049 44.28125 47.125 C 44.009607 47.334941 43.666939 47.573393 43.28125 47.8125 L 50 53.4375 L 55.03125 48.4375 L 49.375 42.78125 z "
         style="fill:url(#linearGradient4586);fill-opacity:1;stroke:none" />
    </g>
  </g>
</svg>
