<?xml version="1.0" encoding="UTF-8" standalone="no"?>
<!-- Created with Inkscape (http://www.inkscape.org/) -->

<svg
   xmlns:dc="http://purl.org/dc/elements/1.1/"
   xmlns:cc="http://creativecommons.org/ns#"
   xmlns:rdf="http://www.w3.org/1999/02/22-rdf-syntax-ns#"
   xmlns:svg="http://www.w3.org/2000/svg"
   xmlns="http://www.w3.org/2000/svg"
   xmlns:xlink="http://www.w3.org/1999/xlink"
   xmlns:sodipodi="http://sodipodi.sourceforge.net/DTD/sodipodi-0.dtd"
   xmlns:inkscape="http://www.inkscape.org/namespaces/inkscape"
   width="64"
   height="64"
   id="svg2"
   version="1.1"
   inkscape:version="0.48.4 r9939"
   sodipodi:docname="footman.svg">
  <defs
     id="defs4">
    <linearGradient
       id="linearGradient3979">
      <stop
         style="stop-color:#999999;stop-opacity:1;"
         offset="0"
         id="stop3981" />
      <stop
         id="stop3991"
         offset="0.0754"
         style="stop-color:#999999;stop-opacity:1;" />
      <stop
         id="stop3989"
         offset="0.36869431"
         style="stop-color:#ffffff;stop-opacity:1;" />
      <stop
         id="stop3987"
         offset="0.69097435"
         style="stop-color:#999999;stop-opacity:1;" />
      <stop
         style="stop-color:#999999;stop-opacity:1;"
         offset="1"
         id="stop3983" />
    </linearGradient>
    <linearGradient
       inkscape:collect="always"
       id="linearGradient3950">
      <stop
         style="stop-color:#000000;stop-opacity:1;"
         offset="0"
         id="stop3952" />
      <stop
         style="stop-color:#000000;stop-opacity:0;"
         offset="1"
         id="stop3954" />
    </linearGradient>
    <linearGradient
       id="linearGradient3934">
      <stop
         style="stop-color:#999999;stop-opacity:1;"
         offset="0"
         id="stop3936" />
      <stop
         id="stop3946"
         offset="0.36083016"
         style="stop-color:#999999;stop-opacity:1;" />
      <stop
         id="stop3944"
         offset="0.45493081"
         style="stop-color:#ffffff;stop-opacity:1;" />
      <stop
         id="stop3942"
         offset="0.71887863"
         style="stop-color:#999999;stop-opacity:1;" />
      <stop
         style="stop-color:#999999;stop-opacity:1;"
         offset="1"
         id="stop3938" />
    </linearGradient>
    <linearGradient
       id="linearGradient3914">
      <stop
         style="stop-color:#ffffff;stop-opacity:1;"
         offset="0"
         id="stop3916" />
      <stop
         style="stop-color:#4a4a4a;stop-opacity:1;"
         offset="1"
         id="stop3918" />
    </linearGradient>
    <linearGradient
       inkscape:collect="always"
       id="linearGradient3906">
      <stop
         style="stop-color:#000000;stop-opacity:1;"
         offset="0"
         id="stop3908" />
      <stop
         style="stop-color:#000000;stop-opacity:0;"
         offset="1"
         id="stop3910" />
    </linearGradient>
    <linearGradient
       id="linearGradient3873">
      <stop
         style="stop-color:#999999;stop-opacity:1;"
         offset="0"
         id="stop3875" />
      <stop
         id="stop3885"
         offset="0.07582533"
         style="stop-color:#999999;stop-opacity:1;" />
      <stop
         id="stop3883"
         offset="0.44253942"
         style="stop-color:#ffffff;stop-opacity:1;" />
      <stop
         id="stop3881"
         offset="0.88889152"
         style="stop-color:#999999;stop-opacity:1;" />
      <stop
         style="stop-color:#999999;stop-opacity:1;"
         offset="1"
         id="stop3877" />
    </linearGradient>
    <linearGradient
       id="linearGradient3863">
      <stop
         style="stop-color:#501616;stop-opacity:1;"
         offset="0"
         id="stop3865" />
      <stop
         style="stop-color:#a9642f;stop-opacity:1;"
         offset="1"
         id="stop3867" />
    </linearGradient>
    <linearGradient
       inkscape:collect="always"
       id="linearGradient3813">
      <stop
         style="stop-color:#000000;stop-opacity:1;"
         offset="0"
         id="stop3815" />
      <stop
         style="stop-color:#000000;stop-opacity:0;"
         offset="1"
         id="stop3817" />
    </linearGradient>
    <linearGradient
       inkscape:collect="always"
       id="linearGradient3801">
      <stop
         style="stop-color:#000000;stop-opacity:1;"
         offset="0"
         id="stop3803" />
      <stop
         style="stop-color:#000000;stop-opacity:0;"
         offset="1"
         id="stop3805" />
    </linearGradient>
    <linearGradient
       id="linearGradient3781">
      <stop
         style="stop-color:#999999;stop-opacity:1;"
         offset="0"
         id="stop3783" />
      <stop
         id="stop3797"
         offset="0.0817585"
         style="stop-color:#7e7e7e;stop-opacity:1;" />
      <stop
         id="stop3795"
         offset="0.32644594"
         style="stop-color:#9f9f9f;stop-opacity:1;" />
      <stop
         id="stop3793"
         offset="0.32644594"
         style="stop-color:#a5a5a5;stop-opacity:1;" />
      <stop
         id="stop3791"
         offset="0.41672909"
         style="stop-color:#b2b2b2;stop-opacity:1;" />
      <stop
         id="stop3789"
         offset="0.82487947"
         style="stop-color:#f6f6f6;stop-opacity:1;" />
      <stop
         style="stop-color:#939393;stop-opacity:1;"
         offset="1"
         id="stop3785" />
    </linearGradient>
    <linearGradient
       inkscape:collect="always"
       xlink:href="#linearGradient3781"
       id="linearGradient3787"
       x1="44.017399"
       y1="1005.7815"
       x2="24.837124"
       y2="1025.0502"
       gradientUnits="userSpaceOnUse" />
    <linearGradient
       inkscape:collect="always"
       xlink:href="#linearGradient3801"
       id="linearGradient3807"
       x1="46.75"
       y1="1047.7372"
       x2="35.5"
       y2="1030.9984"
       gradientUnits="userSpaceOnUse" />
    <linearGradient
       inkscape:collect="always"
       xlink:href="#linearGradient3813"
       id="linearGradient3824"
       gradientUnits="userSpaceOnUse"
       gradientTransform="translate(0,-0.26516504)"
       x1="32.261745"
       y1="999.1524"
       x2="32.261745"
       y2="1010.494" />
    <linearGradient
       inkscape:collect="always"
       xlink:href="#linearGradient3863"
       id="linearGradient3869"
       x1="-30.935923"
       y1="1039.5017"
       x2="-27.968929"
       y2="1039.5017"
       gradientUnits="userSpaceOnUse"
       gradientTransform="matrix(-1,0,0,1,-58.75,0)" />
    <linearGradient
       inkscape:collect="always"
       xlink:href="#linearGradient3873"
       id="linearGradient3879"
       x1="-28.672552"
       y1="57.794567"
       x2="-30.788464"
       y2="60.945435"
       gradientUnits="userSpaceOnUse" />
    <linearGradient
       inkscape:collect="always"
       xlink:href="#linearGradient3906"
       id="linearGradient3912"
       x1="-27.53125"
       y1="1050.0341"
       x2="-30.04394"
       y2="1047.5214"
       gradientUnits="userSpaceOnUse" />
    <radialGradient
       inkscape:collect="always"
       xlink:href="#linearGradient3914"
       id="radialGradient3920"
       cx="-30.593412"
       cy="58.532619"
       fx="-30.593412"
       fy="58.532619"
       r="1.9375"
       gradientUnits="userSpaceOnUse"
       gradientTransform="matrix(1.0791562,1.0791562,-0.70710648,0.70710708,43.810453,50.158861)" />
    <linearGradient
       inkscape:collect="always"
       xlink:href="#linearGradient3934"
       id="linearGradient3940"
       x1="-36.018253"
       y1="1036.0104"
       x2="-30.18462"
       y2="1021.5146"
       gradientUnits="userSpaceOnUse" />
    <linearGradient
       inkscape:collect="always"
       xlink:href="#linearGradient3950"
       id="linearGradient3956"
       x1="-15.903643"
       y1="1030.1768"
       x2="-28.02869"
       y2="1030.1768"
       gradientUnits="userSpaceOnUse" />
    <linearGradient
       inkscape:collect="always"
       xlink:href="#linearGradient3979"
       id="linearGradient3985"
       x1="-38.802486"
       y1="4.5146418"
       x2="-13.700194"
       y2="10.083108"
       gradientUnits="userSpaceOnUse" />
    <linearGradient
       inkscape:collect="always"
       xlink:href="#linearGradient3979"
       id="linearGradient4009"
       gradientUnits="userSpaceOnUse"
       x1="-38.802486"
       y1="4.5146418"
       x2="-13.700194"
       y2="10.083108"
       gradientTransform="matrix(0.81321708,0,0,1,-5.4867484,988.36218)" />
    <linearGradient
       inkscape:collect="always"
       xlink:href="#linearGradient3934"
       id="linearGradient4039"
       gradientUnits="userSpaceOnUse"
       x1="-36.018253"
       y1="1036.0104"
       x2="-30.18462"
       y2="1021.5146" />
    <linearGradient
       inkscape:collect="always"
       xlink:href="#linearGradient3950"
       id="linearGradient4041"
       gradientUnits="userSpaceOnUse"
       x1="-15.903643"
       y1="1030.1768"
       x2="-28.02869"
       y2="1030.1768" />
    <linearGradient
       inkscape:collect="always"
       xlink:href="#linearGradient3979"
       id="linearGradient4043"
       gradientUnits="userSpaceOnUse"
       gradientTransform="matrix(0.81321708,0,0,1,-5.4867484,988.36218)"
       x1="-38.802486"
       y1="4.5146418"
       x2="-13.700194"
       y2="10.083108" />
    <linearGradient
       inkscape:collect="always"
       xlink:href="#linearGradient3873"
       id="linearGradient4045"
       gradientUnits="userSpaceOnUse"
       x1="-28.672552"
       y1="57.794567"
       x2="-30.788464"
       y2="60.945435" />
    <radialGradient
       inkscape:collect="always"
       xlink:href="#linearGradient3914"
       id="radialGradient4047"
       gradientUnits="userSpaceOnUse"
       gradientTransform="matrix(1.0791562,1.0791562,-0.70710648,0.70710708,43.810453,50.158861)"
       cx="-30.593412"
       cy="58.532619"
       fx="-30.593412"
       fy="58.532619"
       r="1.9375" />
    <linearGradient
       inkscape:collect="always"
       xlink:href="#linearGradient3906"
       id="linearGradient4049"
       gradientUnits="userSpaceOnUse"
       x1="-27.53125"
       y1="1050.0341"
       x2="-30.04394"
       y2="1047.5214" />
    <linearGradient
       inkscape:collect="always"
       xlink:href="#linearGradient3863"
       id="linearGradient4051"
       gradientUnits="userSpaceOnUse"
       gradientTransform="matrix(-1,0,0,1,-58.75,0)"
       x1="-30.935923"
       y1="1039.5017"
       x2="-27.968929"
       y2="1039.5017" />
    <linearGradient
       inkscape:collect="always"
       xlink:href="#linearGradient3863"
       id="linearGradient4073"
       gradientUnits="userSpaceOnUse"
       gradientTransform="matrix(-1,0,0,1,-58.75,0)"
       x1="-30.935923"
       y1="1039.5017"
       x2="-27.968929"
       y2="1039.5017" />
    <linearGradient
       inkscape:collect="always"
       xlink:href="#linearGradient3873"
       id="linearGradient4075"
       gradientUnits="userSpaceOnUse"
       x1="-28.672552"
       y1="57.794567"
       x2="-30.788464"
       y2="60.945435" />
    <radialGradient
       inkscape:collect="always"
       xlink:href="#linearGradient3914"
       id="radialGradient4077"
       gradientUnits="userSpaceOnUse"
       gradientTransform="matrix(1.0791562,1.0791562,-0.70710648,0.70710708,43.810453,50.158861)"
       cx="-30.593412"
       cy="58.532619"
       fx="-30.593412"
       fy="58.532619"
       r="1.9375" />
    <linearGradient
       inkscape:collect="always"
       xlink:href="#linearGradient3906"
       id="linearGradient4079"
       gradientUnits="userSpaceOnUse"
       x1="-27.53125"
       y1="1050.0341"
       x2="-30.04394"
       y2="1047.5214" />
    <linearGradient
       inkscape:collect="always"
       xlink:href="#linearGradient3979"
       id="linearGradient4081"
       gradientUnits="userSpaceOnUse"
       gradientTransform="matrix(0.81321708,0,0,1,-5.4867484,988.36218)"
       x1="-38.802486"
       y1="4.5146418"
       x2="-13.700194"
       y2="10.083108" />
    <linearGradient
       inkscape:collect="always"
       xlink:href="#linearGradient3934"
       id="linearGradient4083"
       gradientUnits="userSpaceOnUse"
       x1="-36.018253"
       y1="1036.0104"
       x2="-30.18462"
       y2="1021.5146" />
    <linearGradient
       inkscape:collect="always"
       xlink:href="#linearGradient3950"
       id="linearGradient4085"
       gradientUnits="userSpaceOnUse"
       x1="-15.903643"
       y1="1030.1768"
       x2="-28.02869"
       y2="1030.1768" />
    <linearGradient
       inkscape:collect="always"
       xlink:href="#linearGradient3979"
       id="linearGradient4117"
       gradientUnits="userSpaceOnUse"
       gradientTransform="matrix(0.81321708,0,0,1,-5.4867484,988.36218)"
       x1="-38.802486"
       y1="4.5146418"
       x2="-13.700194"
       y2="10.083108" />
    <linearGradient
       inkscape:collect="always"
       xlink:href="#linearGradient3934"
       id="linearGradient4132"
       gradientUnits="userSpaceOnUse"
       x1="-36.018253"
       y1="1036.0104"
       x2="-30.18462"
       y2="1021.5146" />
    <linearGradient
       inkscape:collect="always"
       xlink:href="#linearGradient3950"
       id="linearGradient4134"
       gradientUnits="userSpaceOnUse"
       x1="-15.903643"
       y1="1030.1768"
       x2="-28.02869"
       y2="1030.1768" />
    <linearGradient
       inkscape:collect="always"
       xlink:href="#linearGradient3950"
       id="linearGradient4137"
       gradientUnits="userSpaceOnUse"
       x1="-15.903643"
       y1="1030.1768"
       x2="-28.02869"
       y2="1030.1768"
       gradientTransform="matrix(0.70710678,0.70710678,-0.70710678,0.70710678,767.43215,386.47255)" />
    <linearGradient
       inkscape:collect="always"
       xlink:href="#linearGradient3934"
       id="linearGradient4140"
       gradientUnits="userSpaceOnUse"
       x1="-36.018253"
       y1="1036.0104"
       x2="-30.18462"
       y2="1021.5146"
       gradientTransform="matrix(0.70710678,0.70710678,-0.70710678,0.70710678,767.43215,386.47255)" />
    <linearGradient
       inkscape:collect="always"
       xlink:href="#linearGradient3863"
       id="linearGradient4151"
       gradientUnits="userSpaceOnUse"
       gradientTransform="matrix(-1,0,0,1,-58.75,0)"
       x1="-30.935923"
       y1="1039.5017"
       x2="-27.968929"
       y2="1039.5017" />
    <linearGradient
       inkscape:collect="always"
       xlink:href="#linearGradient3873"
       id="linearGradient4163"
       gradientUnits="userSpaceOnUse"
       x1="-28.672552"
       y1="57.794567"
       x2="-30.788464"
       y2="60.945435" />
    <radialGradient
       inkscape:collect="always"
       xlink:href="#linearGradient3914"
       id="radialGradient4165"
       gradientUnits="userSpaceOnUse"
       gradientTransform="matrix(1.0791562,1.0791562,-0.70710648,0.70710708,43.810453,50.158861)"
       cx="-30.593412"
       cy="58.532619"
       fx="-30.593412"
       fy="58.532619"
       r="1.9375" />
    <linearGradient
       inkscape:collect="always"
       xlink:href="#linearGradient3906"
       id="linearGradient4167"
       gradientUnits="userSpaceOnUse"
       x1="-27.53125"
       y1="1050.0341"
       x2="-30.04394"
       y2="1047.5214" />
    <linearGradient
       inkscape:collect="always"
       xlink:href="#linearGradient3863"
       id="linearGradient4172"
       gradientUnits="userSpaceOnUse"
       gradientTransform="matrix(-0.70710678,-0.70710678,-0.70710678,0.70710678,725.88963,344.93003)"
       x1="-30.935923"
       y1="1039.5017"
       x2="-27.968929"
       y2="1039.5017" />
    <linearGradient
       inkscape:collect="always"
       xlink:href="#linearGradient3906"
       id="linearGradient4178"
       gradientUnits="userSpaceOnUse"
       x1="-27.53125"
       y1="1050.0341"
       x2="-30.04394"
       y2="1047.5214"
       gradientTransform="matrix(0.70710678,0.70710678,-0.70710678,0.70710678,767.43215,386.47255)" />
    <linearGradient
       inkscape:collect="always"
       xlink:href="#linearGradient3934"
       id="linearGradient4184"
       gradientUnits="userSpaceOnUse"
       x1="-36.018253"
       y1="1036.0104"
       x2="-30.18462"
       y2="1021.5146" />
    <linearGradient
       inkscape:collect="always"
       xlink:href="#linearGradient3950"
       id="linearGradient4186"
       gradientUnits="userSpaceOnUse"
       x1="-15.903643"
       y1="1030.1768"
       x2="-28.02869"
       y2="1030.1768" />
    <linearGradient
       inkscape:collect="always"
       xlink:href="#linearGradient3979"
       id="linearGradient4188"
       gradientUnits="userSpaceOnUse"
       gradientTransform="matrix(0.81321708,0,0,1,-5.4867484,988.36218)"
       x1="-38.802486"
       y1="4.5146418"
       x2="-13.700194"
       y2="10.083108" />
    <linearGradient
       inkscape:collect="always"
       xlink:href="#linearGradient3873"
       id="linearGradient4190"
       gradientUnits="userSpaceOnUse"
       x1="-28.672552"
       y1="57.794567"
       x2="-30.788464"
       y2="60.945435" />
    <radialGradient
       inkscape:collect="always"
       xlink:href="#linearGradient3914"
       id="radialGradient4192"
       gradientUnits="userSpaceOnUse"
       gradientTransform="matrix(1.0791562,1.0791562,-0.70710648,0.70710708,43.810453,50.158861)"
       cx="-30.593412"
       cy="58.532619"
       fx="-30.593412"
       fy="58.532619"
       r="1.9375" />
    <linearGradient
       inkscape:collect="always"
       xlink:href="#linearGradient3906"
       id="linearGradient4194"
       gradientUnits="userSpaceOnUse"
       x1="-27.53125"
       y1="1050.0341"
       x2="-30.04394"
       y2="1047.5214" />
    <linearGradient
       inkscape:collect="always"
       xlink:href="#linearGradient3863"
       id="linearGradient4196"
       gradientUnits="userSpaceOnUse"
       gradientTransform="matrix(-1,0,0,1,-58.75,0)"
       x1="-30.935923"
       y1="1039.5017"
       x2="-27.968929"
       y2="1039.5017" />
    <linearGradient
       inkscape:collect="always"
       xlink:href="#linearGradient3813"
       id="linearGradient4224"
       gradientUnits="userSpaceOnUse"
       gradientTransform="translate(0,-0.26516504)"
       x1="32.261745"
       y1="999.1524"
       x2="32.261745"
       y2="1010.494" />
    <linearGradient
       inkscape:collect="always"
       xlink:href="#linearGradient3781"
       id="linearGradient4226"
       gradientUnits="userSpaceOnUse"
       x1="44.017399"
       y1="1005.7815"
       x2="24.837124"
       y2="1025.0502" />
    <linearGradient
       inkscape:collect="always"
       xlink:href="#linearGradient3801"
       id="linearGradient4228"
       gradientUnits="userSpaceOnUse"
       x1="46.75"
       y1="1047.7372"
       x2="35.5"
       y2="1030.9984" />
    <linearGradient
       inkscape:collect="always"
       xlink:href="#linearGradient3863"
       id="linearGradient4230"
       gradientUnits="userSpaceOnUse"
       gradientTransform="matrix(-1,0,0,1,-58.75,0)"
       x1="-30.935923"
       y1="1039.5017"
       x2="-27.968929"
       y2="1039.5017" />
    <linearGradient
       inkscape:collect="always"
       xlink:href="#linearGradient3873"
       id="linearGradient4232"
       gradientUnits="userSpaceOnUse"
       x1="-28.672552"
       y1="57.794567"
       x2="-30.788464"
       y2="60.945435" />
    <radialGradient
       inkscape:collect="always"
       xlink:href="#linearGradient3914"
       id="radialGradient4234"
       gradientUnits="userSpaceOnUse"
       gradientTransform="matrix(1.0791562,1.0791562,-0.70710648,0.70710708,43.810453,50.158861)"
       cx="-30.593412"
       cy="58.532619"
       fx="-30.593412"
       fy="58.532619"
       r="1.9375" />
    <linearGradient
       inkscape:collect="always"
       xlink:href="#linearGradient3906"
       id="linearGradient4236"
       gradientUnits="userSpaceOnUse"
       x1="-27.53125"
       y1="1050.0341"
       x2="-30.04394"
       y2="1047.5214" />
    <linearGradient
       inkscape:collect="always"
       xlink:href="#linearGradient3979"
       id="linearGradient4238"
       gradientUnits="userSpaceOnUse"
       gradientTransform="matrix(0.81321708,0,0,1,-5.4867484,988.36218)"
       x1="-38.802486"
       y1="4.5146418"
       x2="-13.700194"
       y2="10.083108" />
    <linearGradient
       inkscape:collect="always"
       xlink:href="#linearGradient3934"
       id="linearGradient4240"
       gradientUnits="userSpaceOnUse"
       x1="-36.018253"
       y1="1036.0104"
       x2="-30.18462"
       y2="1021.5146" />
    <linearGradient
       inkscape:collect="always"
       xlink:href="#linearGradient3950"
       id="linearGradient4242"
       gradientUnits="userSpaceOnUse"
       x1="-15.903643"
       y1="1030.1768"
       x2="-28.02869"
       y2="1030.1768" />
  </defs>
  <sodipodi:namedview
     id="base"
     pagecolor="#ffffff"
     bordercolor="#666666"
     borderopacity="1.0"
     inkscape:pageopacity="0.0"
     inkscape:pageshadow="2"
     inkscape:zoom="4"
     inkscape:cx="4.6120926"
     inkscape:cy="28.577874"
     inkscape:document-units="px"
     inkscape:current-layer="layer1"
     showgrid="false"
     fit-margin-top="0"
     fit-margin-left="0"
     fit-margin-right="0"
     fit-margin-bottom="0"
     inkscape:window-width="1920"
     inkscape:window-height="1058"
     inkscape:window-x="-8"
     inkscape:window-y="623"
     inkscape:window-maximized="1" />
  <metadata
     id="metadata7">
    <rdf:RDF>
      <cc:Work
         rdf:about="">
        <dc:format>image/svg+xml</dc:format>
        <dc:type
           rdf:resource="http://purl.org/dc/dcmitype/StillImage" />
        <dc:title></dc:title>
      </cc:Work>
    </rdf:RDF>
  </metadata>
  <g
     inkscape:label="Layer 1"
     inkscape:groupmode="layer"
     id="layer1"
     transform="translate(0,-988.36218)">
    <path
       style="fill:#ff0000;stroke:none"
       d="m 31.97183,995.64343 c -5.438302,7.33667 -10.43235,8.88267 -15.323703,8.93747 l 0,19.8125 c 2.691985,9.5356 11.801184,16.2265 15.323703,17.9375 l 0.05634,0 c 3.522519,-1.711 12.63172,-8.402 15.3237,-17.9375 l 0,-19.8125 c -4.89135,-0.055 -9.885398,-1.6008 -15.3237,-8.93747 z"
       id="path2999"
       inkscape:connector-curvature="0"
       sodipodi:nodetypes="ccccccccc" />
    <g
       id="g4268">
      <g
         transform="translate(0,-1.375)"
         id="g3828">
        <path
           style="font-size:medium;font-style:normal;font-variant:normal;font-weight:normal;font-stretch:normal;text-indent:0;text-align:start;text-decoration:none;line-height:normal;letter-spacing:normal;word-spacing:normal;text-transform:none;direction:ltr;block-progression:tb;writing-mode:lr-tb;text-anchor:start;baseline-shift:baseline;opacity:0.17699112;color:#000000;fill:#000000;fill-opacity:1;fill-rule:nonzero;stroke:none;stroke-width:2.9000001;marker:none;visibility:visible;display:inline;overflow:visible;enable-background:accumulate;font-family:Sans;-inkscape-font-specification:Sans"
           d="m 31.20082,995.03541 -0.466189,0.59939 c -5.587275,7.5377 -10.219455,8.8693 -15.117826,8.9243 l -1.531762,0 0,1.5316 0,21.1118 0,0.1997 0.0666,0.2331 c 1.532386,5.4281 4.842948,9.944 8.224897,13.353 3.381949,3.4091 6.806273,5.6977 8.924179,6.7265 l 0.332992,0.1332 0.332992,0 0.0666,0 0.366291,0 0.299693,-0.1332 c 2.117917,-1.0288 5.542234,-3.3174 8.924179,-6.7265 3.381945,-3.409 6.692509,-7.9249 8.224897,-13.353 l 0.0666,-0.2331 0,-0.1997 0,-21.1118 0,-1.5316 -1.531762,0 c -4.898458,-0.055 -9.530558,-1.3866 -15.117826,-8.9243 l -0.466189,-0.59939 -0.765881,0 -0.0666,0 -0.765881,0 z M 32,998.83152 c 5.059414,6.15408 10.08859,8.24938 14.818134,8.62448 l 0,19.4801 c -1.359248,4.6603 -4.303815,8.7411 -7.392418,11.8545 -2.84035,2.863 -5.67515,4.7779 -7.425716,5.7275 -1.750573,-0.9496 -4.585367,-2.8645 -7.425716,-5.7275 -3.088601,-3.1134 -6.03317,-7.1941 -7.392418,-11.8545 l 0,-19.4801 c 4.729601,-0.375 9.758726,-2.4704 14.818134,-8.62448 z"
           id="path3826"
           inkscape:connector-curvature="0" />
        <path
           style="font-size:medium;font-style:normal;font-variant:normal;font-weight:normal;font-stretch:normal;text-indent:0;text-align:start;text-decoration:none;line-height:normal;letter-spacing:normal;word-spacing:normal;text-transform:none;direction:ltr;block-progression:tb;writing-mode:lr-tb;text-anchor:start;baseline-shift:baseline;color:#000000;fill:url(#linearGradient4224);fill-opacity:1;fill-rule:nonzero;stroke:none;stroke-width:2.9000001;marker:none;visibility:visible;display:inline;overflow:visible;enable-background:accumulate;font-family:Sans;-inkscape-font-specification:Sans"
           d="m 31.4375,997.44076 c -0.83625,1.07599 -1.651935,2.0219 -2.46875,2.84374 -0.02808,0.032 -0.06571,0.062 -0.09375,0.094 -4.396199,4.966 -8.207833,5.9502 -12.21875,6 l 0,19.125 c 1.339115,4.7434 4.275087,8.771 7.3125,11.8437 -2.488156,-2.7502 -4.758848,-6.1418 -5.875,-9.9687 l 0,-18.2813 c 4.438549,-0.352 9.15819,-2.3183 13.90625,-8.0937 4.748066,5.7754 9.467755,7.7416 13.90625,8.0937 l 0,18.2813 c -1.116152,3.8268 -3.386843,7.2185 -5.875,9.9687 3.03758,-3.0728 5.973316,-7.1001 7.3125,-11.8437 l 0,-19.125 c -4.010988,-0.05 -7.822569,-1.0341 -12.21875,-6 -0.0093,-0.011 -0.0219,-0.021 -0.03125,-0.031 -0.02127,-0.021 -0.04122,-0.041 -0.0625,-0.062 -0.816815,-0.82183 -1.6325,-1.76775 -2.46875,-2.84374 l -0.53125,0 -0.0625,0 -0.53125,0 z"
           id="path3809"
           inkscape:connector-curvature="0" />
        <path
           style="font-size:medium;font-style:normal;font-variant:normal;font-weight:normal;font-stretch:normal;text-indent:0;text-align:start;text-decoration:none;line-height:normal;letter-spacing:normal;word-spacing:normal;text-transform:none;direction:ltr;block-progression:tb;writing-mode:lr-tb;text-anchor:start;baseline-shift:baseline;color:#000000;fill:url(#linearGradient4226);fill-opacity:1;fill-rule:nonzero;stroke:none;stroke-width:2.9000001;marker:none;visibility:visible;display:inline;overflow:visible;enable-background:accumulate;font-family:Sans;-inkscape-font-specification:Sans"
           d="m 31.25,995.58091 -0.4375,0.5625 c -5.243444,7.07389 -9.590567,8.32349 -14.1875,8.37509 l -1.4375,0 0,1.4374 0,19.8126 0,0.1874 0.0625,0.2188 c 1.438085,5.094 4.544921,9.332 7.71875,12.5312 3.173829,3.1993 6.387426,5.3471 8.375,6.3126 l 0.3125,0.125 0.3125,0 0.0625,0 0.34375,0 0.28125,-0.125 c 1.987584,-0.9655 5.201174,-3.1133 8.375,-6.3126 3.173826,-3.1992 6.280663,-7.4372 7.71875,-12.5312 l 0.0625,-0.2188 0,-0.1874 0,-19.8126 0,-1.4374 -1.4375,0 c -4.597015,-0.052 -8.944063,-1.3012 -14.1875,-8.37509 l -0.4375,-0.5625 -0.71875,0 -0.0625,0 -0.71875,0 z m 0.75,3.5625 c 4.748066,5.77539 9.467755,7.74169 13.90625,8.09379 l 0,18.2813 c -1.275602,4.3735 -4.038965,8.2032 -6.9375,11.125 -2.66556,2.6868 -5.325911,4.4839 -6.96875,5.375 -1.642846,-0.8911 -4.303191,-2.6882 -6.96875,-5.375 -2.898533,-2.9218 -5.661898,-6.7514 -6.9375,-11.125 l 0,-18.2813 c 4.438549,-0.352 9.15819,-2.3184 13.90625,-8.09379 z"
           id="path3007"
           inkscape:connector-curvature="0" />
        <path
           inkscape:connector-curvature="0"
           id="path3799"
           d="m 31.25,995.58091 -0.4375,0.5625 c -5.243444,7.07389 -9.590567,8.32349 -14.1875,8.37509 l -1.4375,0 0,1.4374 0,19.8126 0,0.1874 0.0625,0.2188 c 1.438085,5.094 4.544921,9.332 7.71875,12.5312 3.173829,3.1993 6.387426,5.3471 8.375,6.3126 l 0.3125,0.125 0.3125,0 0.0625,0 0.34375,0 0.28125,-0.125 c 1.987584,-0.9655 5.201174,-3.1133 8.375,-6.3126 3.173826,-3.1992 6.280663,-7.4372 7.71875,-12.5312 l 0.0625,-0.2188 0,-0.1874 0,-19.8126 0,-1.4374 -1.4375,0 c -4.597015,-0.052 -8.944063,-1.3012 -14.1875,-8.37509 l -0.4375,-0.5625 -0.71875,0 -0.0625,0 -0.71875,0 z m 0.75,3.5625 c 4.748066,5.77539 9.467755,7.74169 13.90625,8.09379 l 0,18.2813 c -1.275602,4.3735 -4.038965,8.2032 -6.9375,11.125 -2.66556,2.6868 -5.325911,4.4839 -6.96875,5.375 -1.642846,-0.8911 -4.303191,-2.6882 -6.96875,-5.375 -2.898533,-2.9218 -5.661898,-6.7514 -6.9375,-11.125 l 0,-18.2813 c 4.438549,-0.352 9.15819,-2.3184 13.90625,-8.09379 z"
           style="font-size:medium;font-style:normal;font-variant:normal;font-weight:normal;font-stretch:normal;text-indent:0;text-align:start;text-decoration:none;line-height:normal;letter-spacing:normal;word-spacing:normal;text-transform:none;direction:ltr;block-progression:tb;writing-mode:lr-tb;text-anchor:start;baseline-shift:baseline;color:#000000;fill:url(#linearGradient4228);fill-opacity:1;fill-rule:nonzero;stroke:none;stroke-width:2.9000001;marker:none;visibility:visible;display:inline;overflow:visible;enable-background:accumulate;font-family:Sans;-inkscape-font-specification:Sans" />
      </g>
      <path
         inkscape:connector-curvature="0"
         id="path4107"
         d="m 61.1875,993.04968 c -4.696735,2.4954 -10.515966,6.89432 -16.34375,12.56252 l -0.03125,0 -1.0625,1.0625 -14.1875,14.2187 c -1.0127,2.1809 -2.724746,4.5685 -4.96875,6.8125 -2.244074,2.244 -5.069123,4.3936 -7.25,5.4063 l -0.09375,0.094 c -2.094682,-2.5646 -3.285951,-5.0682 -3.09375,-6.5312 l -0.25,-0.25 -3.4375,3.4687 5.625,5.625 c -4.209812,4.2591 -7.7328812,8.1884 -9.71875,10.8125 -0.9373144,-0.3522 -2.0271058,-0.1604 -2.78125,0.5938 -1.0280874,1.0281 -1.0280874,2.6906 0,3.7187 1.0280874,1.0281 2.6906626,1.0281 3.71875,0 0.7541442,-0.7541 0.9459971,-1.8439 0.59375,-2.7812 2.624192,-1.9859 6.553437,-5.5089 10.8125,-9.7188 l 5.625,5.625 3.46875,-3.4375 -0.25,-0.25 c -1.463041,0.1922 -3.966625,-0.9991 -6.53125,-3.0937 l 0.09375,-0.094 c 1.0127,-2.1808 3.162176,-5.0059 5.40625,-7.25 2.244004,-2.244 4.631623,-3.956 6.8125,-4.9687 l 14.21875,-14.1875 1.0625,-1.0625 0,-0.031 c 5.668202,-5.8278 10.067082,-11.64702 12.5625,-16.34372 z"
         style="opacity:0.23451329;fill:#000000;fill-opacity:1;stroke:none" />
      <g
         transform="matrix(0.70710678,0.70710678,-0.70710678,0.70710678,767.43215,325.09755)"
         id="g4021">
        <path
           style="fill:url(#linearGradient4230);fill-opacity:1;stroke:none"
           d="m -27.5,1030.5578 c -0.01162,6.4007 -0.33025,12.0413 -0.8125,15.4294 -0.324896,-0.1733 -0.678821,-0.2806 -1.0625,-0.2806 -0.383679,0 -0.737604,0.1073 -1.0625,0.2806 -0.48225,-3.3881 -0.800879,-9.0287 -0.8125,-15.4294 l 3.75,0 z"
           id="path3836"
           inkscape:connector-curvature="0" />
        <path
           inkscape:connector-curvature="0"
           style="opacity:0.5;fill:#ffff00;fill-opacity:1;stroke:none"
           d="m -31.25,42.1875 c 7.22e-4,0.397431 0.0282,0.765037 0.03125,1.15625 l 1.15625,-1.15625 -1.1875,0 z m 3.75,0.25 -3.6875,3.6875 c 0.0087,0.389233 0.02023,0.776437 0.03125,1.15625 l 3.625,-3.625 c 0.0039,-0.410452 0.02995,-0.801196 0.03125,-1.21875 z m -0.0625,4.0625 -3.5,3.5 c 0.01774,0.381627 0.01116,0.789021 0.03125,1.15625 l 3.4375,-3.4375 c 0.01301,-0.410342 0.02092,-0.796831 0.03125,-1.21875 z m -0.15625,4.15625 -3.125,3.125 c 0.02857,0.362645 0.06271,0.753566 0.09375,1.09375 l 2.96875,-2.96875 c 0.02552,-0.417722 0.04013,-0.811545 0.0625,-1.25 z M -28,54.9375 l -2.46875,2.46875 c 0.0089,0.06482 0.02225,0.155486 0.03125,0.21875 0.324896,-0.1733 0.678821,-0.28125 1.0625,-0.28125 0.04328,0 0.08247,0.02858 0.125,0.03125 l 1.09375,-1.09375 C -28.1056,55.837137 -28.04573,55.433827 -28,54.9375 z"
           transform="translate(0,988.36218)"
           id="rect3849" />
        <path
           inkscape:connector-curvature="0"
           style="opacity:0.5;fill:#ffff00;fill-opacity:1;stroke:none"
           d="m -31.21875,42.8125 c 0.0067,0.174834 -0.0014,0.351635 0,0.53125 l 0.53125,-0.53125 -0.53125,0 z m 3.6875,0.28125 -3.625,3.625 c 0.0052,0.187516 -0.0054,0.377861 0,0.5625 l 3.625,-3.625 c 0.0018,-0.189315 -0.0066,-0.377006 0,-0.5625 z m -0.0625,4.0625 -3.4375,3.4375 c 0.003,0.189931 -0.0098,0.383978 0,0.5625 l 3.4375,-3.4375 c 0.006,-0.189264 -0.0046,-0.377568 0,-0.5625 z m -0.15625,4.15625 -3.03125,3.03125 c 0.01551,0.179692 0.01621,0.366396 0.03125,0.53125 l 2.96875,-2.96875 c 0.01212,-0.198444 0.02205,-0.398746 0.03125,-0.59375 z m -0.34375,4.34375 -1.75,1.75 c 0.149927,-0.03456 0.308494,-0.0625 0.46875,-0.0625 0.04328,0 0.08247,0.02858 0.125,0.03125 l 1.09375,-1.09375 c 0.02352,-0.206178 0.03735,-0.42302 0.0625,-0.625 z"
           transform="translate(0,988.36218)"
           id="path3889" />
      </g>
      <g
         transform="matrix(0.70710678,0.70710678,-0.70710678,0.70710678,767.43215,325.09755)"
         id="g4015">
        <path
           sodipodi:type="arc"
           style="fill:url(#linearGradient4232);fill-opacity:1;stroke:none"
           id="path3834"
           sodipodi:cx="-29.9375"
           sodipodi:cy="59.3125"
           sodipodi:rx="1.9375"
           sodipodi:ry="1.9375"
           d="m -28,59.3125 c 0,1.070052 -0.867448,1.9375 -1.9375,1.9375 -1.070052,0 -1.9375,-0.867448 -1.9375,-1.9375 0,-1.070052 0.867448,-1.9375 1.9375,-1.9375 1.070052,0 1.9375,0.867448 1.9375,1.9375 z"
           transform="matrix(1.3587523,0,0,1.3587523,11.302646,967.64618)" />
        <path
           sodipodi:type="arc"
           style="opacity:0.2;fill:#000000;fill-opacity:1;stroke:none"
           id="path3922"
           sodipodi:cx="-29.9375"
           sodipodi:cy="59.3125"
           sodipodi:rx="1.9375"
           sodipodi:ry="1.9375"
           d="m -28,59.3125 c 0,1.070052 -0.867448,1.9375 -1.9375,1.9375 -1.070052,0 -1.9375,-0.867448 -1.9375,-1.9375 0,-1.070052 0.867448,-1.9375 1.9375,-1.9375 1.070052,0 1.9375,0.867448 1.9375,1.9375 z"
           transform="matrix(0.78861762,0,0,0.78861762,-5.5945084,1001.733)" />
        <path
           transform="matrix(0.74584907,0,0,0.74584907,-7.0461444,1003.999)"
           d="m -28,59.3125 c 0,1.070052 -0.867448,1.9375 -1.9375,1.9375 -1.070052,0 -1.9375,-0.867448 -1.9375,-1.9375 0,-1.070052 0.867448,-1.9375 1.9375,-1.9375 1.070052,0 1.9375,0.867448 1.9375,1.9375 z"
           sodipodi:ry="1.9375"
           sodipodi:rx="1.9375"
           sodipodi:cy="59.3125"
           sodipodi:cx="-29.9375"
           id="path3871"
           style="fill:url(#radialGradient4234);fill-opacity:1;stroke:none"
           sodipodi:type="arc" />
        <path
           style="font-size:medium;font-style:normal;font-variant:normal;font-weight:normal;font-stretch:normal;text-indent:0;text-align:start;text-decoration:none;line-height:normal;letter-spacing:normal;word-spacing:normal;text-transform:none;direction:ltr;block-progression:tb;writing-mode:lr-tb;text-anchor:start;baseline-shift:baseline;color:#000000;fill:url(#linearGradient4236);fill-opacity:1;stroke:none;stroke-width:0.31700489;marker:none;visibility:visible;display:inline;overflow:visible;enable-background:accumulate;font-family:Sans;-inkscape-font-specification:Sans"
           d="m -29.375,1045.5953 c -1.45829,0 -2.641915,1.1836 -2.641915,2.6419 0,1.4583 1.183625,2.6419 2.641915,2.6419 1.458291,0 2.641915,-1.1836 2.641915,-2.6419 0,-1.4583 -1.183624,-2.6419 -2.641915,-2.6419 z m 0,0.3943 c 1.242115,0 2.2476,1.0055 2.2476,2.2476 0,1.2421 -1.005485,2.2476 -2.2476,2.2476 -1.242114,0 -2.247599,-1.0055 -2.247599,-2.2476 0,-1.2421 1.005485,-2.2476 2.247599,-2.2476 z"
           id="path3887"
           inkscape:connector-curvature="0" />
      </g>
      <g
         transform="matrix(0.70710678,0.70710678,-0.70710678,0.70710678,767.43215,325.09755)"
         id="g4032">
        <path
           style="fill:url(#linearGradient4238);fill-opacity:1;stroke:none"
           d="m -29.375,969.39343 c -1.556567,5.08562 -2.555527,12.33986 -2.668369,20.46875 l -0.02541,0 0,1.5 0,20.09372 c 0.826026,2.2582 1.321478,5.139 1.321478,8.3125 0,3.1736 -0.495452,6.7106 -1.321478,8.9688 l 0,0.875 5.387564,0 0,-0.875 c -0.826026,-2.2582 -1.321478,-5.7952 -1.321478,-8.9688 0,-3.1735 0.495452,-6.0543 1.321478,-8.3125 l 0,-20.09372 0,-1.5 -0.02541,0 c -0.112842,-8.12889 -1.111802,-15.38313 -2.668369,-20.46875 z"
           id="rect3958"
           inkscape:connector-curvature="0" />
        <path
           style="opacity:0.18141593;fill:#000000;fill-opacity:1;stroke:none"
           d="m -29.375,969.39343 0,60.21877 2.693782,0 0,-0.875 c -0.826026,-2.2582 -1.321478,-5.7952 -1.321478,-8.9688 0,-3.1735 0.495452,-6.0543 1.321478,-8.3125 l 0,-20.09372 0,-1.5 -0.02541,0 c -0.112842,-8.12889 -1.111802,-15.38313 -2.668369,-20.46875 z"
           id="rect3993"
           inkscape:connector-curvature="0" />
        <path
           style="opacity:0.1504425;fill:#ffffff;fill-opacity:1;stroke:none"
           d="m -29.375,969.39343 c -1.556567,5.08562 -2.555527,12.33986 -2.668369,20.46875 l -0.02541,0 0,1.5 0,20.09372 c 0.826026,2.2582 1.321478,5.139 1.321478,8.3125 0,3.1736 -0.495452,6.7106 -1.321478,8.9688 l 0,0.875 2.693782,0 0,-60.21877 z"
           id="rect3997"
           inkscape:connector-curvature="0" />
        <rect
           style="fill:#f2f2f2;fill-opacity:1;stroke:none"
           id="rect4011"
           width="0.37116927"
           height="35.074692"
           x="-29.392616"
           y="993.93152" />
        <rect
           y="993.93152"
           x="-29.763786"
           height="35.074692"
           width="0.37116927"
           id="rect4013"
           style="opacity:0.19911505;fill:#000000;fill-opacity:1;stroke:none" />
      </g>
      <g
         transform="matrix(0.70710678,0.70710678,-0.70710678,0.70710678,767.43215,325.09755)"
         id="g4003">
        <path
           style="fill:url(#linearGradient4240);fill-opacity:1;stroke:none"
           d="m -39.1875,1026.4391 0,4.875 19.625,0 0,-4.875 -0.34375,0 c -1.131612,1.4739 -4.941076,2.5625 -9.46875,2.5625 -4.527674,0 -8.337138,-1.0886 -9.46875,-2.5625 l -0.34375,0 z"
           id="rect3841"
           inkscape:connector-curvature="0" />
        <path
           inkscape:connector-curvature="0"
           id="path3948"
           d="m -39.1875,1026.4391 0,4.875 19.625,0 0,-4.875 -0.34375,0 c -1.131612,1.4739 -4.941076,2.5625 -9.46875,2.5625 -4.527674,0 -8.337138,-1.0886 -9.46875,-2.5625 l -0.34375,0 z"
           style="fill:url(#linearGradient4242);fill-opacity:1;stroke:none" />
      </g>
    </g>
  </g>
</svg>
